<svg width="23" height="30" viewBox="0 0 23 30" fill="none" xmlns="http://www.w3.org/2000/svg">
<path id="Vector" fill-rule="evenodd" clip-rule="evenodd" d="M4.57873 16.1428C5.63104 12.6694 8.25998 10.6407 11.5037 9.2721C9.90632 10.127 8.43342 11.1544 7.23407 12.5396C6.44028 13.4225 5.83944 14.4564 5.4689 15.5772C5.05212 16.929 5.09173 18.2067 6.13645 19.2971C7.23027 20.445 8.62016 20.7826 10.1062 20.3931C14.2193 19.3102 16.4597 16.3987 17.4026 12.534C18.4625 8.22439 17.0914 4.3579 14.6398 0.793696C14.57 0.691693 14.4988 0.590623 14.4276 0.489545V0.489537L14.4274 0.489305C14.3563 0.388321 14.2852 0.287346 14.2155 0.185445C14.21 0.177887 14.216 0.162796 14.2313 0.124456V0.124422V0.124413V0.12437C14.2423 0.096836 14.2581 0.0573133 14.2777 0C15.6416 1.54314 16.7364 3.29765 17.5176 5.19239C19.0961 9.06626 19.179 12.9124 17.0424 16.6212C15.7166 18.9262 13.81 20.6323 11.2151 21.4928C9.99304 21.897 8.72388 21.9917 7.50942 21.5762C5.01812 20.7269 3.82437 18.6128 4.57873 16.1428ZM2.90805 16.6897C3.15804 15.8613 3.58716 15.0959 4.16591 14.4458C4.08635 14.6445 4.00187 14.8397 3.91774 15.0341L3.91765 15.0342C3.75845 15.4021 3.60036 15.7672 3.47947 16.1481C2.41395 19.5343 4.33755 22.6572 7.90369 23.2617C11.5396 23.8756 14.359 22.2863 16.622 19.7217C19.8619 16.0425 20.6238 11.7365 19.4395 7.05404C19.4179 6.96757 19.3858 6.88256 19.3531 6.79584V6.79575C19.2658 6.56446 19.1741 6.32157 19.266 6.00999C19.7194 6.53789 19.9056 7.13185 20.0884 7.7151V7.71518C20.1041 7.76497 20.1196 7.81476 20.1354 7.86446C21.0654 10.7296 20.9591 13.823 19.8349 16.62C18.7107 19.4171 16.6375 21.7459 13.9667 23.2116C11.4642 24.5672 8.83718 24.9789 6.11401 23.768C3.28523 22.5069 1.96515 19.6067 2.90805 16.6897ZM1.6348 17.2463C0.469344 19.7738 1.14637 23.0377 3.20575 24.8494C5.88552 27.1953 9.06887 28.002 12.503 27.0192C17.8494 25.4818 20.8008 21.6951 21.953 16.4786C22.366 14.6241 22.2454 13.263 21.8286 12.3414C22.0927 16.0502 20.8479 19.2361 18.434 21.9306C15.6052 25.0831 12.1277 26.804 7.71669 25.964C4.3523 25.3242 2.00821 23.021 1.49337 19.9371C1.34627 19.1007 1.45754 18.2848 1.6348 17.2463ZM22.1418 20.3544C22.2072 20.2699 22.2797 20.1911 22.3588 20.1189C21.1612 25.4985 15.7017 29.8675 10.3006 29.9955C6.989 30.0716 4.10551 29.1999 1.85945 26.7039C0.901403 25.6089 0.259304 24.2814 0 22.8597C2.46478 29.1146 11.6169 30.969 17.9157 26.1308C19.7818 24.744 21.1999 22.8556 21.9985 20.6937C22.0397 20.5779 22.0875 20.4646 22.1418 20.3544Z" fill="#F1AA48"/>
</svg>
